<svg xmlns="http://www.w3.org/2000/svg" xmlns:xlink="http://www.w3.org/1999/xlink" viewBox="0 0 15 15" enable-background="new 0 0 15.975 15.975">
	<path d="M7.987 0c-3.096 0-5.606 2.51-5.606 5.606 0 .237.019.468.048.697.479 4.379 5.194 9.426 5.194 9.426.084.094.165.152.243.194l.004.002.157.05.157-.05.004-.002c.078-.042.159-.103.243-.194 0 0 4.647-5.056 5.115-9.436.028-.226.047-.455.047-.688-.001-3.095-2.51-5.605-5.606-5.605zm0 9.212c-1.988 0-3.606-1.618-3.606-3.606s1.618-3.606 3.606-3.606 3.605 1.618 3.605 3.606-1.617 3.606-3.605 3.606z" id="map" fill="#27a34e" />
</svg>
