<?xml version="1.0" encoding="UTF-8" standalone="no"?>
<svg width="30px" height="29px" viewBox="0 0 30 29" version="1.1" xmlns="http://www.w3.org/2000/svg" xmlns:xlink="http://www.w3.org/1999/xlink" xmlns:sketch="http://www.bohemiancoding.com/sketch/ns">
    <!-- Generator: Sketch 3.1.1 (8761) - http://www.bohemiancoding.com/sketch -->
    <title>calendar5</title>
    <desc>Created with Sketch.</desc>
    <defs></defs>
    <g id="Page-1" stroke="none" stroke-width="1" fill="none" fill-rule="evenodd" sketch:type="MSPage">
        <g id="calendar5" sketch:type="MSLayerGroup">
            <g id="Group" sketch:type="MSShapeGroup">
                <path d="M7.685,24.27 L8.28,24.27 L8.28,22.139 L11.968,22.139 L11.968,24.27 L12.564,24.27 L12.564,22.139 L16.426,22.139 L16.426,24.27 L17.023,24.27 L17.023,22.139 L21.132,22.139 L21.132,24.27 L21.727,24.27 L21.727,22.139 L25.144,22.139 L25.144,21.545 L21.727,21.545 L21.727,17.684 L25.144,17.684 L25.144,17.088 L21.727,17.088 L21.727,13.569 L25.144,13.569 L25.144,12.975 L21.727,12.975 L21.727,10.598 L21.132,10.598 L21.132,12.975 L17.023,12.975 L17.023,10.598 L16.426,10.598 L16.426,12.975 L12.564,12.975 L12.564,10.598 L11.968,10.598 L11.968,12.975 L8.279,12.975 L8.279,10.598 L7.685,10.598 L7.685,12.975 L3.747,12.975 L3.747,13.569 L7.685,13.569 L7.685,17.088 L3.747,17.088 L3.747,17.684 L7.685,17.684 L7.685,21.545 L3.747,21.545 L3.747,22.139 L7.685,22.139 L7.685,24.27 L7.685,24.27 Z M12.563,21.545 L12.563,17.684 L16.425,17.684 L16.425,21.545 L12.563,21.545 L12.563,21.545 Z M21.132,21.545 L17.023,21.545 L17.023,17.684 L21.132,17.684 L21.132,21.545 L21.132,21.545 Z M21.132,13.569 L21.132,17.088 L17.023,17.088 L17.023,13.569 L21.132,13.569 L21.132,13.569 Z M16.426,13.569 L16.426,17.088 L12.564,17.088 L12.564,13.569 L16.426,13.569 L16.426,13.569 Z M8.279,13.569 L11.967,13.569 L11.967,17.088 L8.279,17.088 L8.279,13.569 L8.279,13.569 Z M8.279,17.684 L11.967,17.684 L11.967,21.545 L8.279,21.545 L8.279,17.684 L8.279,17.684 Z" id="Shape" fill="#2CAD58"></path>
                <path d="M29.207,1.955 L25.078,1.959 L24.475,1.961 L24.475,4.409 C24.475,5.062 23.941,5.596 23.287,5.596 L21.899,5.596 C21.243,5.596 20.711,5.063 20.711,4.409 L20.711,1.965 L19.128,1.967 L19.128,4.409 C19.128,5.062 18.593,5.596 17.937,5.596 L16.549,5.596 C15.894,5.596 15.361,5.063 15.361,4.409 L15.361,1.968 L13.679,1.972 L13.679,4.41 C13.679,5.063 13.145,5.597 12.49,5.597 L11.101,5.597 C10.448,5.597 9.913,5.064 9.913,4.41 L9.913,1.976 L8.181,1.976 L8.181,4.41 C8.181,5.063 7.648,5.597 6.993,5.597 L5.605,5.597 C4.949,5.597 4.416,5.064 4.416,4.41 L4.416,1.981 L0,1.985 L0,28.138 L2.09,28.138 L27.15,28.138 L29.237,28.132 L29.207,1.955 L29.207,1.955 Z M27.15,26.057 L2.09,26.057 L2.09,9.348 L27.15,9.348 L27.15,26.057 L27.15,26.057 Z" id="Shape" fill="#000000"></path>
                <path d="M5.605,4.754 L6.993,4.754 C7.156,4.754 7.289,4.621 7.289,4.457 L7.289,0.297 C7.289,0.132 7.156,0 6.993,0 L5.605,0 C5.44,0 5.307,0.132 5.307,0.297 L5.307,4.457 C5.307,4.621 5.44,4.754 5.605,4.754 L5.605,4.754 Z" id="Shape" fill="#2CAD58"></path>
                <path d="M11.101,4.754 L12.49,4.754 C12.654,4.754 12.787,4.621 12.787,4.457 L12.787,0.297 C12.786,0.132 12.653,0 12.489,0 L11.1,0 C10.937,0 10.804,0.132 10.804,0.297 L10.804,4.457 C10.805,4.621 10.938,4.754 11.101,4.754 L11.101,4.754 Z" id="Shape" fill="#2CAD58"></path>
                <path d="M16.549,4.754 L17.937,4.754 C18.103,4.754 18.236,4.621 18.236,4.457 L18.236,0.297 C18.235,0.132 18.103,0 17.937,0 L16.549,0 C16.385,0 16.252,0.132 16.252,0.297 L16.252,4.457 C16.252,4.621 16.385,4.754 16.549,4.754 L16.549,4.754 Z" id="Shape" fill="#2CAD58"></path>
                <path d="M21.899,4.754 L23.287,4.754 C23.451,4.754 23.583,4.621 23.583,4.457 L23.583,0.297 C23.583,0.132 23.451,0 23.287,0 L21.899,0 C21.735,0 21.602,0.132 21.602,0.297 L21.602,4.457 C21.603,4.621 21.735,4.754 21.899,4.754 L21.899,4.754 Z" id="Shape" fill="#2CAD58"></path>
            </g>
        </g>
    </g>
</svg>