<?xml version="1.0" encoding="UTF-8" standalone="no"?>
<svg width="112px" height="112px" viewBox="0 0 112 112" version="1.1" xmlns="http://www.w3.org/2000/svg" xmlns:xlink="http://www.w3.org/1999/xlink" xmlns:sketch="http://www.bohemiancoding.com/sketch/ns">
    <!-- Generator: Sketch 3.1.1 (8761) - http://www.bohemiancoding.com/sketch -->
    <title>clock61</title>
    <desc>Created with Sketch.</desc>
    <defs></defs>
    <g id="Page-1" stroke="none" stroke-width="1" fill="none" fill-rule="evenodd" sketch:type="MSPage">
        <g id="clock61" sketch:type="MSLayerGroup">
            <path d="M112,56 C112,86.926 86.926,112 56,112 C25.074,112 0,86.926 0,56 C0,25.074 25.074,0 56,0 C86.926,0 112,25.074 112,56 L112,56 Z M102.666,56 C102.666,30.226 81.773,9.333 56,9.333 C30.227,9.333 9.333,30.226 9.333,56 C9.333,81.773 30.227,102.666 56,102.666 C81.773,102.666 102.666,81.773 102.666,56 L102.666,56 Z" id="Shape" fill="#000000" sketch:type="MSShapeGroup"></path>
            <path d="M58.954,55.79 L82.623,81.152 L78.102,85.792 L49.484,60.33 L48.958,56.327 L51.002,18.064 L56.947,18.064 L58.954,55.79 L58.954,55.79 Z" id="Path" fill="#2CAD58" sketch:type="MSShapeGroup"></path>
        </g>
    </g>
</svg>