<?xml version="1.0" encoding="UTF-8" standalone="no"?>
<svg width="60px" height="82px" viewBox="0 0 60 82" version="1.1" xmlns="http://www.w3.org/2000/svg" xmlns:xlink="http://www.w3.org/1999/xlink" xmlns:sketch="http://www.bohemiancoding.com/sketch/ns">
    <!-- Generator: Sketch 3.1.1 (8761) - http://www.bohemiancoding.com/sketch -->
    <title>business60</title>
    <desc>Created with Sketch.</desc>
    <defs></defs>
    <g id="Page-1" stroke="none" stroke-width="1" fill="none" fill-rule="evenodd" sketch:type="MSPage">
        <g id="business60" sketch:type="MSLayerGroup" transform="translate(1.000000, 0.000000)">
            <g id="Group" sketch:type="MSShapeGroup">
                <circle id="Oval" fill="#2CAD58" cx="29.217" cy="17.217" r="17.217"></circle>
                <path d="M36.28,36.098 L21.673,36.098 C9.521,36.098 -0.368,45.987 -0.368,58.141 L-0.368,76.01 L-0.323,76.289 L0.909,76.674 C12.507,80.297 22.585,81.508 30.88,81.508 C47.079,81.508 56.47,76.887 57.052,76.594 L58.202,76.01 L58.323,76.01 L58.323,58.141 C58.323,45.986 48.437,36.098 36.28,36.098 L36.28,36.098 Z M32.38,70.775 L29.228,75.388 C29.185,75.452 29.117,75.488 29.042,75.488 L29.036,75.488 C28.962,75.488 28.891,75.449 28.85,75.384 L25.922,70.767 C25.897,70.728 25.885,70.681 25.887,70.632 L27.352,48.228 C27.36,48.109 27.457,48.019 27.577,48.019 L30.616,48.019 C30.735,48.019 30.833,48.109 30.843,48.228 L32.417,70.63 C32.423,70.684 32.407,70.732 32.38,70.775 L32.38,70.775 Z M30.954,47.342 L27.341,47.342 L24.2,40.85 C24.2,40.227 24.704,39.725 25.327,39.725 L32.87,39.725 C33.491,39.725 33.995,40.227 33.995,40.85 L30.954,47.342 L30.954,47.342 Z" id="Shape" fill="#000000"></path>
            </g>
        </g>
    </g>
</svg>