<?xml version="1.0" encoding="UTF-8" standalone="no"?>
<svg width="82px" height="68px" viewBox="0 0 82 68" version="1.1" xmlns="http://www.w3.org/2000/svg" xmlns:xlink="http://www.w3.org/1999/xlink" xmlns:sketch="http://www.bohemiancoding.com/sketch/ns">
    <!-- Generator: Sketch 3.1.1 (8761) - http://www.bohemiancoding.com/sketch -->
    <title>multiple25</title>
    <desc>Created with Sketch.</desc>
    <defs></defs>
    <g id="Page-1" stroke="none" stroke-width="1" fill="none" fill-rule="evenodd" sketch:type="MSPage">
        <g id="multiple25" sketch:type="MSLayerGroup" transform="translate(1.000000, 0.000000)">
            <path d="M48.289,11.857 C51.994,14.18 54.592,18.111 55.066,22.674 C56.576,23.38 58.254,23.786 60.031,23.786 C66.523,23.786 71.783,18.525 71.783,12.035 C71.783,5.544 66.523,0.283 60.031,0.283 C53.602,0.284 48.387,5.451 48.289,11.857 L48.289,11.857 Z M65.018,24.588 L55.123,24.588 C55.016,28.547 53.326,32.112 50.654,34.676 C58.029,36.869 63.424,43.708 63.424,51.786 L63.424,55.544 C73.194,55.185 78.824,52.417 79.195,52.23 L79.98,51.832 L80.064,51.832 L80.064,39.634 C80.064,31.338 73.314,24.588 65.018,24.588 L65.018,24.588 Z M19.969,23.787 C22.268,23.787 24.407,23.116 26.219,21.973 C26.795,18.216 28.809,14.933 31.686,12.697 C31.698,12.477 31.719,12.259 31.719,12.037 C31.719,5.546 26.457,0.285 19.969,0.285 C13.477,0.285 8.217,5.546 8.217,12.037 C8.217,18.526 13.477,23.787 19.969,23.787 L19.969,23.787 Z M30.523,34.676 C27.863,32.125 26.179,28.579 26.056,24.644 C25.689,24.617 25.326,24.588 24.952,24.588 L14.981,24.588 C6.684,24.588 -0.066,31.338 -0.066,39.634 L-0.066,51.831 L-0.035,52.02 L0.805,52.284 C7.157,54.268 12.826,55.181 17.75,55.469 L17.75,51.786 C17.752,43.708 23.146,36.87 30.523,34.676 L30.523,34.676 Z" id="Shape" fill="#000000" sketch:type="MSShapeGroup"></path>
            <path d="M45.574,36.72 L35.603,36.72 C27.306,36.72 20.556,43.471 20.556,51.767 L20.556,63.963 L20.587,64.154 L21.427,64.417 C29.345,66.89 36.224,67.716 41.886,67.716 C52.945,67.716 59.355,64.563 59.751,64.362 L60.536,63.964 L60.62,63.964 L60.62,51.767 C60.621,43.471 53.871,36.72 45.574,36.72 L45.574,36.72 Z M40.59,35.919 C47.08,35.919 52.342,30.657 52.342,24.167 C52.342,17.677 47.08,12.416 40.59,12.416 C34.1,12.416 28.836,17.678 28.836,24.168 C28.836,30.658 34.1,35.919 40.59,35.919 L40.59,35.919 Z" id="Path" fill="#2CAD58" sketch:type="MSShapeGroup"></path>
        </g>
    </g>
</svg>