<?xml version="1.0" encoding="UTF-8" standalone="no"?>
<svg width="496px" height="360px" viewBox="0 0 496 360" version="1.1" xmlns="http://www.w3.org/2000/svg" xmlns:xlink="http://www.w3.org/1999/xlink" xmlns:sketch="http://www.bohemiancoding.com/sketch/ns">
    <!-- Generator: Sketch 3.1.1 (8761) - http://www.bohemiancoding.com/sketch -->
    <title>agreement2</title>
    <desc>Created with Sketch.</desc>
    <defs></defs>
    <g id="Page-1" stroke="none" stroke-width="1" fill="none" fill-rule="evenodd" sketch:type="MSPage">
        <g id="agreement2" sketch:type="MSLayerGroup" transform="translate(0.000000, 1.000000)">
            <path d="M392.631,220.434 C303.751,131.553 345.556,173.376 297.725,125.442 C297.725,125.442 283.35,111.131 264.404,119.444 C251.104,125.272 233.981,133.215 221.097,139.279 C206.939,146.703 196.75,149.001 191.966,148.969 C164.596,148.79 142.39,126.791 142.39,99.448 C142.39,81.71 151.807,66.267 165.852,57.501 C185.602,43.834 231.062,19.654 231.062,19.654 C231.062,19.654 217.213,2.105 186.875,2.105 C156.546,2.105 93.18,43.617 93.18,43.617 C93.18,43.617 75.204,55.131 49.579,44.76 L0.189,27.561 L0.189,199.238 C0.189,199.238 14.292,203.32 26.964,208.496 C29.826,200.334 34.444,192.797 40.85,186.572 C61.873,166.548 96.719,166.34 115.846,186.035 C121.608,192.022 125.629,199.164 127.681,207.059 C135.388,209.438 142.369,213.652 147.979,219.432 C153.758,225.379 157.764,232.561 159.833,240.416 C167.531,242.797 174.502,247.027 180.131,252.811 C186.47,259.348 190.693,267.244 192.665,275.799 C200.712,278.143 207.984,282.504 213.841,288.492 C225.336,300.299 229.416,316.318 226.944,331.77 C226.964,331.77 227.002,331.77 227.02,331.805 C227.208,332.051 234.142,339.781 238.466,344.141 C246.94,352.623 260.777,352.623 269.277,344.141 C277.721,335.662 277.758,321.852 269.277,313.33 C268.973,313.027 238.705,281.367 241.141,278.912 C243.559,276.474 282.122,316.6 282.84,317.334 C291.303,325.799 305.131,325.799 313.632,317.334 C322.113,308.855 322.095,295.045 313.632,286.543 C313.216,286.147 311.48,284.484 310.836,283.822 C310.836,283.822 272.602,249.762 275.512,246.852 C278.458,243.924 325.95,288.244 326.027,288.244 C334.564,295.932 347.714,295.875 355.927,287.658 C363.918,279.668 364.089,267.029 357.005,258.512 C356.855,258.059 320.811,220.391 323.624,217.557 C326.478,214.686 362.143,251.41 362.218,251.486 C370.662,259.949 384.509,259.949 393.01,251.486 C401.473,243.022 401.473,229.195 393.01,220.656 C392.895,220.584 392.744,220.508 392.631,220.434 L392.631,220.434 Z" id="Shape" fill="#000000" sketch:type="MSShapeGroup"></path>
            <path d="M168.287,298.488 C172.272,288.25 170.94,276.799 163.3,268.943 C156.435,261.916 146.412,260.064 136.855,262.254 C139.528,252.775 138.052,242.686 131.15,235.566 C124.264,228.557 114.26,226.668 104.704,228.878 C107.357,219.413 105.885,209.325 98.979,202.226 C88.165,191.134 69.46,191.61 57.172,203.323 C44.949,215.052 37.119,236.302 48.028,248.81 C58.919,261.255 71.433,253.683 80.973,251.509 C78.319,260.974 70.367,269.778 80.16,282.167 C89.944,294.562 103.564,287.042 113.114,284.888 C110.451,294.317 102.846,304.005 112.263,315.492 C121.765,327.014 137.328,320.875 147.607,317.682 C143.64,327.881 135.149,338.875 146.058,351.195 C156.95,363.604 182.121,357.863 194.416,346.132 C206.678,334.403 207.855,315.814 197.07,304.687 C189.624,297.053 178.524,295.277 168.287,298.488 L168.287,298.488 Z M495.811,44.277 L495.811,194.307 C495.811,194.307 463.701,200.633 457.086,201.465 C450.492,202.295 429.77,208.986 414.752,194.551 C391.592,172.354 309.305,90.521 309.305,90.521 C309.305,90.521 295.117,76.599 272.336,88.631 C251.424,99.653 220.425,115.806 207.477,122.096 C183,135.124 162.713,114.454 162.713,98.709 C162.713,86.496 170.334,78.207 181.228,72.111 C210.752,54.213 272.98,19.284 298.898,5.513 C314.652,-2.866 326.003,-3.584 347.632,14.637 C374.27,37.04 397.976,57.461 397.976,57.461 C397.976,57.461 405.708,63.914 418.039,61.315 C448.319,54.913 495.811,44.277 495.811,44.277 L495.811,44.277 Z" id="Path" fill="#2CAD58" sketch:type="MSShapeGroup"></path>
        </g>
    </g>
</svg>