<?xml version="1.0" encoding="UTF-8" standalone="no"?>
<svg width="122px" height="122px" viewBox="0 0 122 122" version="1.1" xmlns="http://www.w3.org/2000/svg" xmlns:xlink="http://www.w3.org/1999/xlink" xmlns:sketch="http://www.bohemiancoding.com/sketch/ns">
    <!-- Generator: Sketch 3.1.1 (8761) - http://www.bohemiancoding.com/sketch -->
    <title>three115</title>
    <desc>Created with Sketch.</desc>
    <defs></defs>
    <g id="Page-1" stroke="none" stroke-width="1" fill="none" fill-rule="evenodd" sketch:type="MSPage">
        <g id="three115" sketch:type="MSLayerGroup">
            <g id="Group" sketch:type="MSShapeGroup">
                <path d="M50.106,98.945 L47.326,97.92 C47.545,95.893 47.473,93.827 47.092,91.774 L49.776,90.536 C51.453,89.766 52.188,87.772 51.415,86.095 L49.848,82.695 C49.076,81.019 47.085,80.281 45.411,81.054 L42.723,82.293 C41.41,80.666 39.886,79.27 38.204,78.117 L39.23,75.342 C39.868,73.611 38.98,71.681 37.25,71.041 L33.735,69.743 C32.058,69.126 30.055,70.048 29.437,71.722 L28.412,74.5 C26.387,74.284 24.321,74.355 22.266,74.734 L21.029,72.05 C20.257,70.374 18.264,69.638 16.59,70.409 L13.187,71.975 C11.511,72.748 10.777,74.742 11.547,76.416 L12.784,79.1 C11.16,80.415 9.761,81.939 8.61,83.623 L5.836,82.597 C4.161,81.973 2.155,82.897 1.534,84.576 L0.237,88.091 C-0.072,88.931 -0.036,89.84 0.337,90.652 C0.713,91.463 1.381,92.081 2.217,92.387 L4.997,93.415 C4.777,95.44 4.849,97.509 5.231,99.562 L2.544,100.799 C0.868,101.57 0.134,103.562 0.905,105.237 L2.473,108.641 C3.245,110.316 5.236,111.052 6.911,110.279 L9.598,109.043 C10.911,110.669 12.434,112.065 14.118,113.217 L13.092,115.994 C12.78,116.832 12.816,117.739 13.192,118.553 C13.563,119.365 14.233,119.985 15.071,120.296 L18.586,121.592 C19.422,121.902 20.333,121.865 21.145,121.493 C21.958,121.118 22.575,120.45 22.883,119.612 L23.91,116.832 C25.935,117.052 28.003,116.98 30.057,116.601 L31.292,119.285 C32.064,120.959 34.058,121.696 35.732,120.923 L39.134,119.357 C40.812,118.585 41.547,116.594 40.773,114.917 L39.536,112.233 C41.162,110.918 42.56,109.395 43.709,107.713 L46.487,108.74 C47.328,109.051 48.237,109.013 49.05,108.638 C49.86,108.264 50.476,107.596 50.786,106.759 L52.083,103.244 C52.724,101.514 51.836,99.585 50.106,98.945 L50.106,98.945 Z M31.698,107.688 C29.944,108.496 28.083,108.904 26.165,108.904 C21.013,108.904 16.293,105.881 14.14,101.206 C11.088,94.575 13.996,86.699 20.623,83.648 C22.376,82.839 24.237,82.431 26.152,82.431 C31.303,82.431 36.027,85.452 38.181,90.128 C41.233,96.759 38.324,104.635 31.698,107.688 L31.698,107.688 Z" id="Shape" fill="#2CAD58"></path>
                <path d="M83.207,108.526 L81.66,107.956 C81.783,106.827 81.742,105.676 81.53,104.533 L83.024,103.844 C83.958,103.416 84.367,102.306 83.937,101.371 L83.065,99.478 C82.633,98.543 81.526,98.132 80.594,98.564 L79.097,99.253 C78.366,98.348 77.517,97.569 76.582,96.928 L77.153,95.382 C77.508,94.418 77.013,93.345 76.05,92.987 L74.092,92.265 C73.158,91.919 72.044,92.433 71.698,93.366 L71.127,94.914 C70.001,94.793 68.849,94.833 67.706,95.044 L67.018,93.551 C66.586,92.617 65.477,92.206 64.544,92.637 L62.65,93.51 C61.716,93.942 61.308,95.05 61.737,95.983 L62.426,97.478 C61.521,98.21 60.742,99.059 60.1,99.996 L58.556,99.426 C57.625,99.079 56.507,99.591 56.162,100.527 L55.438,102.485 C55.267,102.952 55.288,103.459 55.493,103.911 C55.703,104.362 56.076,104.706 56.542,104.877 L58.089,105.449 C57.966,106.578 58.006,107.728 58.219,108.872 L56.724,109.561 C55.79,109.991 55.381,111.099 55.811,112.032 L56.685,113.928 C57.114,114.86 58.223,115.271 59.156,114.841 L60.651,114.153 C61.382,115.058 62.232,115.835 63.169,116.476 L62.598,118.021 C62.424,118.488 62.444,118.995 62.653,119.447 C62.861,119.899 63.232,120.244 63.7,120.418 L65.656,121.14 C66.123,121.312 66.628,121.292 67.081,121.084 C67.534,120.876 67.878,120.504 68.049,120.038 L68.62,118.488 C69.749,118.612 70.899,118.572 72.043,118.36 L72.732,119.855 C73.161,120.786 74.271,121.197 75.202,120.766 L77.098,119.894 C78.031,119.462 78.44,118.356 78.01,117.422 L77.322,115.926 C78.226,115.195 79.005,114.348 79.645,113.41 L81.192,113.981 C81.659,114.155 82.166,114.133 82.619,113.925 C83.069,113.718 83.414,113.344 83.586,112.878 L84.308,110.921 C84.664,109.957 84.169,108.882 83.207,108.526 L83.207,108.526 Z M72.957,113.396 C71.981,113.844 70.946,114.072 69.877,114.072 C67.009,114.072 64.38,112.389 63.181,109.785 C61.481,106.095 63.099,101.708 66.791,100.01 C67.767,99.56 68.803,99.333 69.87,99.333 C72.738,99.333 75.366,101.015 76.567,103.618 C78.265,107.31 76.647,111.694 72.957,113.396 L72.957,113.396 Z" id="Shape" fill="#010101"></path>
                <path d="M118.297,49.622 L113.624,47.897 C113.993,44.49 113.872,41.015 113.232,37.56 L117.745,35.483 C120.562,34.189 121.797,30.836 120.499,28.015 L117.865,22.297 C116.568,19.478 113.22,18.238 110.405,19.538 L105.886,21.622 C103.678,18.887 101.115,16.54 98.29,14.602 L100.013,9.934 C101.085,7.023 99.595,3.779 96.685,2.705 L90.776,0.519 C87.957,-0.517 84.59,1.034 83.548,3.849 L81.824,8.522 C78.419,8.156 74.944,8.277 71.491,8.913 L69.411,4.403 C68.114,1.584 64.765,0.347 61.947,1.645 L56.227,4.279 C53.409,5.578 52.172,8.929 53.468,11.745 L55.551,16.258 C52.82,18.469 50.468,21.031 48.531,23.861 L43.866,22.137 C41.051,21.088 37.678,22.641 36.636,25.461 L34.455,31.373 C33.934,32.783 33.995,34.311 34.621,35.677 C35.255,37.041 36.379,38.08 37.784,38.594 L42.457,40.324 C42.086,43.727 42.207,47.206 42.849,50.659 L38.335,52.737 C35.516,54.036 34.282,57.382 35.579,60.198 L38.214,65.922 C39.512,68.736 42.86,69.976 45.677,68.677 L50.192,66.597 C52.4,69.332 54.963,71.68 57.794,73.615 L56.068,78.284 C55.544,79.692 55.605,81.22 56.235,82.587 C56.861,83.951 57.986,84.993 59.394,85.516 L65.303,87.695 C66.712,88.216 68.24,88.155 69.606,87.53 C70.973,86.901 72.01,85.777 72.528,84.367 L74.256,79.693 C77.66,80.064 81.135,79.943 84.592,79.304 L86.668,83.816 C87.966,86.63 91.317,87.871 94.134,86.571 L99.854,83.937 C102.675,82.637 103.907,79.291 102.609,76.473 L100.53,71.96 C103.262,69.747 105.614,67.189 107.546,64.36 L112.218,66.088 C113.629,66.609 115.158,66.547 116.525,65.917 C117.887,65.289 118.923,64.164 119.444,62.758 L121.627,56.847 C122.699,53.939 121.206,50.696 118.297,49.622 L118.297,49.622 Z M87.351,64.32 C84.401,65.677 81.273,66.365 78.05,66.365 C69.387,66.365 61.453,61.283 57.83,53.42 C52.698,42.274 57.588,29.032 68.729,23.902 C71.676,22.543 74.806,21.857 78.026,21.857 C86.688,21.857 94.626,26.936 98.249,34.797 C103.379,45.946 98.491,59.188 87.351,64.32 L87.351,64.32 Z" id="Shape" fill="#010101"></path>
            </g>
        </g>
    </g>
</svg>