<?xml version="1.0" encoding="UTF-8" standalone="no"?>
<svg width="16px" height="15px" viewBox="0 0 16 15" version="1.1" xmlns="http://www.w3.org/2000/svg" xmlns:xlink="http://www.w3.org/1999/xlink" xmlns:sketch="http://www.bohemiancoding.com/sketch/ns">
    <!-- Generator: Sketch 3.1.1 (8761) - http://www.bohemiancoding.com/sketch -->
    <title>house4</title>
    <desc>Created with Sketch.</desc>
    <defs></defs>
    <g id="Page-1" stroke="none" stroke-width="1" fill="none" fill-rule="evenodd" sketch:type="MSPage">
        <g id="house4" sketch:type="MSLayerGroup">
            <g id="Group" sketch:type="MSShapeGroup">
                <path d="M15.829,7.122 L8.329,0.622 C8.141,0.459 7.862,0.459 7.674,0.622 L5,2.938 L5,2 C5,1.448 4.552,1 4,1 C3.448,1 3,1.448 3,2 L3,4.671 L0.172,7.122 C-0.036,7.303 -0.059,7.619 0.122,7.828 C0.304,8.036 0.619,8.058 0.828,7.878 L8,1.662 L15.172,7.878 C15.267,7.96 15.383,8 15.5,8 C15.64,8 15.778,7.941 15.877,7.828 C16.059,7.619 16.036,7.304 15.829,7.122 L15.829,7.122 Z" id="Shape" fill="#2CAD58"></path>
                <path d="M8.633,4.227 C8.45,4.076 8.225,4 8,4 C7.775,4 7.55,4.076 7.366,4.227 L2.366,8.326 C2.134,8.516 2,8.799 2,9.1 L2,14 C2,14.552 2.448,15 3,15 L6,15 L6,10 L10,10 L10,15 L13,15 C13.551,15 14,14.552 14,14 L14,9.1 C14,8.799 13.865,8.516 13.633,8.327 L8.633,4.227 L8.633,4.227 Z" id="Shape" fill="#000000"></path>
            </g>
        </g>
    </g>
</svg>