<svg xmlns="http://www.w3.org/2000/svg" width="45.773" height="45.773" fill="#fff" viewBox="0 0 45.773 45.773">
    <path d="M5.081 13.737c2.582-3.942 6.609-6.849 11.32-7.988.363-.087.662-.344.802-.689.141-.346.107-.738-.091-1.055-1.508-2.404-4.176-4.005-7.224-4.005-4.712 0-8.534 3.82-8.534 8.532 0 2 .691 3.837 1.845 5.29.231.293.589.455.962.438s.716-.212.92-.523zM35.886 0c-3.034 0-5.693 1.586-7.204 3.974-.2.316-.235.711-.094 1.059.142.349.442.605.809.691 4.724 1.112 8.765 3.999 11.369 7.928.207.312.552.505.927.518.375.014.731-.154.961-.451 1.105-1.436 1.766-3.232 1.766-5.186-.003-4.713-3.822-8.533-8.534-8.533zM41.752 26.132c0-3.294-.857-6.39-2.351-9.084-2.769-4.99-7.742-8.577-13.595-9.475-.933-.143-1.88-.24-2.853-.24-1.016 0-2.006.104-2.979.26-5.828.935-10.776 4.537-13.516 9.533-1.467 2.676-2.304 5.744-2.304 9.006 0 5.586 2.463 10.597 6.343 14.041l-1.584 2.231c-.682.961-.456 2.291.505 2.975.375.266.806.395 1.233.395.668 0 1.326-.313 1.741-.898l1.583-2.23c2.669 1.457 5.728 2.287 8.978 2.287 3.249 0 6.308-.83 8.977-2.287l1.583 2.23c.416.586 1.073.898 1.741.898.427 0 .857-.129 1.232-.395.961-.684 1.188-2.014.506-2.975l-1.584-2.231c3.88-3.444 6.344-8.455 6.344-14.041zm-18.798 13.542c-7.468 0-13.542-6.074-13.542-13.542 0-2.328.591-4.519 1.629-6.435 1.976-3.644 5.58-6.269 9.826-6.93.682-.106 1.375-.178 2.087-.178.67 0 1.325.065 1.97.16 4.282.628 7.925 3.253 9.924 6.913 1.05 1.923 1.647 4.126 1.647 6.469 0 7.469-6.074 13.543-13.541 13.543zM30.54 29.3l-5.166-3.19c-.107-.604-.434-1.125-.893-1.494l.236-6.482c.029-.828-.617-1.523-1.444-1.554-.825-.038-1.523.616-1.554 1.444l-.237 6.489c-.641.452-1.063 1.196-1.063 2.041 0 1.381 1.119 2.499 2.5 2.499.393 0 .76-.099 1.09-.26l4.955 3.062c.246.15.519.223.787.223.503 0 .993-.252 1.278-.711.436-.707.216-1.631-.489-2.067z" />
</svg>
