<svg xmlns="http://www.w3.org/2000/svg" width="45.779" height="45.779" fill="#fff" viewBox="0 0 45.779 45.779">
    <path d="M37.426 2.633h-29.064c-4.616 0-8.362 3.736-8.362 8.352v17.003c0 4.615 3.747 8.344 8.362 8.344h18.48l3.902 5.604c.527.756 1.39 1.209 2.311 1.211.92.002 1.785-.443 2.314-1.197l4.129-5.865c3.611-.924 6.281-4.198 6.281-8.098v-17.002c0-4.616-3.737-8.352-8.353-8.352zm-21.995 19.57c-1.505 0-2.726-1.215-2.726-2.717 0-1.499 1.221-2.716 2.726-2.716 1.506 0 2.726 1.217 2.726 2.716 0 1.502-1.22 2.717-2.726 2.717zm7.463 0c-1.505 0-2.726-1.215-2.726-2.717 0-1.499 1.221-2.716 2.726-2.716 1.506 0 2.725 1.217 2.725 2.716 0 1.502-1.219 2.717-2.725 2.717zm7.463 0c-1.506 0-2.727-1.215-2.727-2.717 0-1.499 1.221-2.716 2.727-2.716s2.726 1.217 2.726 2.716c0 1.502-1.22 2.717-2.726 2.717z" />
</svg>
